<svg width="200" height="200" version="1.1" id="レイヤー_1" xmlns="http://www.w3.org/2000/svg" xmlns:xlink="http://www.w3.org/1999/xlink" x="0px"
	 y="0px" viewBox="0 0 48 48" style="enable-background:new 0 0 48 48;" xml:space="preserve">
<style type="text/css">
	.st0{fill:#0146B3;}
	.st1{fill:#FFFFFF;}
</style>
<path class="st0" d="M39.4,48H8.5C3.8,48,0,44.2,0,39.4V8.5C0,3.8,3.8,0,8.5,0h30.9C44.2,0,48,3.8,48,8.5v30.9
	C48,44.2,44.2,48,39.4,48z"/>
<g>
	<path class="st1" d="M6.3,20.9v1.8h2.5v1.2H6.3v2h2.8v1.2H4.8v-7.4H9v1.2H6.3z"/>
	<path class="st1" d="M10,20.3c-0.2-0.1-0.3-0.4-0.3-0.6s0.1-0.5,0.3-0.6c0.2-0.2,0.4-0.3,0.6-0.3s0.5,0.1,0.6,0.3
		c0.2,0.1,0.3,0.4,0.3,0.6s-0.1,0.5-0.3,0.6c-0.2,0.2-0.4,0.3-0.6,0.3C10.4,20.5,10.2,20.5,10,20.3z M11.4,21.2V27H9.9v-5.8H11.4z"
		/>
	<path class="st1" d="M15.8,21.4c0.3,0.2,0.6,0.4,0.8,0.7v-0.8H18v5.9c0,0.5-0.1,1-0.3,1.4c-0.2,0.4-0.5,0.8-1,1
		c-0.4,0.3-1,0.4-1.6,0.4c-0.8,0-1.5-0.2-2-0.6c-0.5-0.4-0.8-0.9-0.9-1.6h1.5c0.1,0.3,0.2,0.5,0.5,0.6c0.3,0.1,0.6,0.2,0.9,0.2
		c0.4,0,0.8-0.1,1.1-0.4s0.4-0.6,0.4-1.2v-0.9c-0.2,0.3-0.5,0.5-0.8,0.7c-0.3,0.2-0.7,0.3-1.1,0.3c-0.5,0-0.9-0.1-1.4-0.4
		c-0.4-0.3-0.7-0.6-1-1.1s-0.3-1-0.3-1.6s0.1-1.1,0.3-1.6c0.2-0.4,0.6-0.8,0.9-1c0.4-0.3,0.9-0.4,1.3-0.4
		C15.1,21.2,15.5,21.2,15.8,21.4z M16.3,23.2c-0.1-0.3-0.3-0.5-0.6-0.6s-0.5-0.2-0.8-0.2s-0.5,0.1-0.8,0.2c-0.2,0.1-0.4,0.3-0.6,0.6
		c-0.2,0.3-0.2,0.6-0.2,0.9s0.1,0.7,0.2,0.9c0.2,0.3,0.3,0.5,0.6,0.6s0.5,0.2,0.8,0.2s0.5-0.1,0.8-0.2c0.2-0.2,0.4-0.3,0.6-0.6
		c0.2-0.3,0.2-0.6,0.2-0.9S16.5,23.5,16.3,23.2z"/>
	<path class="st1" d="M20.1,26.8c-0.4-0.3-0.8-0.6-1-1.1c-0.3-0.4-0.4-1-0.4-1.6c0-0.6,0.1-1.1,0.4-1.6s0.6-0.8,1.1-1
		c0.5-0.3,1-0.4,1.5-0.4s1,0.1,1.5,0.4c0.4,0.2,0.8,0.6,1,1s0.4,1,0.4,1.6c0,0.6-0.2,1.1-0.4,1.6c-0.3,0.5-0.6,0.8-1.1,1.1
		c-0.5,0.3-1,0.4-1.5,0.4C21,27.2,20.5,27,20.1,26.8z M22.3,25.7c0.2-0.1,0.4-0.3,0.6-0.6c0.2-0.3,0.2-0.6,0.2-0.9
		c0-0.6-0.1-1-0.5-1.3c-0.3-0.3-0.6-0.5-1-0.5s-0.8,0.2-1,0.5c-0.3,0.3-0.4,0.7-0.4,1.3s0.2,1,0.4,1.3s0.6,0.4,1,0.4
		C21.9,25.9,22.1,25.8,22.3,25.7z"/>
	<path class="st1" d="M26.6,25.8h2.6V27h-4.2v-1.2l2.6-3.4H25v-1.2h4.2v1.2L26.6,25.8z"/>
	<path class="st1" d="M30.2,20.3c-0.2-0.1-0.3-0.4-0.3-0.6s0.1-0.5,0.3-0.6c0.2-0.2,0.4-0.3,0.6-0.3c0.3,0,0.5,0.1,0.6,0.3
		c0.2,0.1,0.3,0.4,0.3,0.6s-0.1,0.5-0.3,0.6c-0.2,0.2-0.4,0.3-0.6,0.3C30.5,20.5,30.3,20.5,30.2,20.3z M31.5,21.2V27h-1.5v-5.8H31.5
		z"/>
	<path class="st1" d="M34,19.3V27h-1.5v-7.8H34z"/>
	<path class="st1" d="M36.4,19.3V27h-1.5v-7.8H36.4z"/>
	<path class="st1" d="M37.5,22.6c0.2-0.5,0.6-0.8,0.9-1c0.4-0.3,0.9-0.4,1.3-0.4c0.4,0,0.8,0.1,1.1,0.3c0.3,0.2,0.6,0.4,0.8,0.7
		v-0.8h1.5v5.8h-1.5v-0.9c-0.2,0.3-0.4,0.5-0.8,0.7s-0.7,0.3-1.2,0.3c-0.5,0-0.9-0.1-1.3-0.4c-0.4-0.3-0.7-0.6-0.9-1.1
		c-0.2-0.4-0.3-1-0.3-1.6C37.1,23.5,37.2,23,37.5,22.6z M41.5,23.2c-0.2-0.3-0.3-0.5-0.6-0.6s-0.5-0.2-0.8-0.2
		c-0.3,0-0.5,0.1-0.8,0.2c-0.2,0.1-0.4,0.3-0.6,0.6c-0.2,0.3-0.2,0.6-0.2,0.9s0.1,0.7,0.2,0.9c0.2,0.3,0.3,0.5,0.6,0.6
		s0.5,0.2,0.8,0.2c0.3,0,0.5-0.1,0.8-0.2c0.2-0.2,0.4-0.3,0.6-0.6s0.2-0.6,0.2-0.9S41.6,23.5,41.5,23.2z"/>
</g>
</svg>
